<svg xmlns="http://www.w3.org/2000/svg" viewBox="0 0 128 128"><defs><linearGradient id="clip" x1="0" y1="0" x2="1" y2="1"><stop offset="0" stop-color="#F472B6"/><stop offset="1" stop-color="#C026D3"/></linearGradient><linearGradient id="acc" x1="0" y1="0" x2="1" y2="1"><stop offset="0" stop-color="#A78BFA"/><stop offset="1" stop-color="#6D28D9"/></linearGradient><linearGradient id="bg" x1="0" y1="0" x2="1" y2="1"><stop offset="0" stop-color="#FF9A62"/><stop offset="1" stop-color="#FF4D7D"/></linearGradient></defs>
<rect x="4" y="4" width="120" height="120" rx="28" fill="url(#bg)"/><rect x="26" y="24" width="62" height="78" rx="11" fill="#FFFFFF"/><rect x="42" y="15" width="30" height="17" rx="6" fill="url(#clip)"/><rect x="35" y="46" width="14" height="14" rx="4" fill="url(#acc)"/><path d="M38.3 53 l3.2 3.2 l5 -6.4" fill="none" stroke="#fff" stroke-width="2.8" stroke-linecap="round" stroke-linejoin="round"/><rect x="54" y="49" width="26" height="8" rx="4" fill="#C4B5FD"/><rect x="35" y="67" width="14" height="14" rx="4" fill="url(#acc)"/><path d="M38.3 74 l3.2 3.2 l5 -6.4" fill="none" stroke="#fff" stroke-width="2.8" stroke-linecap="round" stroke-linejoin="round"/><rect x="54" y="70" width="19" height="8" rx="4" fill="#DDD6FE"/><circle cx="90" cy="90" r="23" fill="url(#acc)" stroke="#fff" stroke-width="5"/><g fill="none" stroke="#fff" stroke-width="2.8" stroke-linecap="round"><circle cx="90" cy="90" r="13.5"/><ellipse cx="90" cy="90" rx="6" ry="13.5"/><path d="M77 85.5 h26 M77 94.5 h26"/></g></svg>
